<?xml version="1.0" encoding="UTF-8" standalone="no"?>
<svg
   height="200"
   style="clip-rule:evenodd;fill-rule:evenodd;stroke-linejoin:round;stroke-miterlimit:2"
   version="1.1"
   viewBox="0 0 200 200"
   width="200"
   xml:space="preserve"
   id="svg1"
   sodipodi:docname="facebook-square-ink.svg"
   inkscape:version="1.4.2 (f4327f4, 2025-05-13)"
   xmlns:inkscape="http://www.inkscape.org/namespaces/inkscape"
   xmlns:sodipodi="http://sodipodi.sourceforge.net/DTD/sodipodi-0.dtd"
   xmlns="http://www.w3.org/2000/svg"
   xmlns:svg="http://www.w3.org/2000/svg"><defs
     id="defs1" /><sodipodi:namedview
     id="namedview1"
     pagecolor="#ffffff"
     bordercolor="#000000"
     borderopacity="0.25"
     inkscape:showpageshadow="2"
     inkscape:pageopacity="0.0"
     inkscape:pagecheckerboard="0"
     inkscape:deskcolor="#d1d1d1"
     inkscape:zoom="1.1679688"
     inkscape:cx="255.57191"
     inkscape:cy="255.57191"
     inkscape:window-width="1355"
     inkscape:window-height="829"
     inkscape:window-x="-5"
     inkscape:window-y="0"
     inkscape:window-maximized="0"
     inkscape:current-layer="svg1" /><path
     d="M 449.446,0 C 483.971,0 512,28.03 512,62.554 V 449.446 C 512,483.97 483.97,512 449.446,512 H 342.978 V 319.085 h 66.6 l 12.672,-82.621 h -79.272 v -53.617 c 0,-22.603 11.073,-44.636 46.58,-44.636 H 425.6 v -70.34 c 0,0 -32.71,-5.582 -63.982,-5.582 -65.288,0 -107.96,39.569 -107.96,111.204 v 62.971 h -72.573 v 82.621 h 72.573 V 512 H 62.554 C 28.03,512 0,483.97 0,449.446 V 62.554 C 0,28.03 28.029,0 62.554,0 Z"
     style="fill:#1777f2"
     id="path1" /></svg>
